<?xml version="1.0" standalone="no"?>
<!DOCTYPE svg PUBLIC "-//W3C//DTD SVG 1.1//EN" "http://www.w3.org/Graphics/SVG/1.1/DTD/svg11.dtd" >
<svg xmlns="http://www.w3.org/2000/svg">
<metadata>Generated by IcoMoon</metadata>
<defs>
<font id="icomoon" horiz-adv-x="1024">
<font-face units-per-em="1024" ascent="960" descent="-64" />
<missing-glyph horiz-adv-x="1024" />
<glyph unicode="&#x20;" horiz-adv-x="512" d="" />
<glyph unicode="&#xe900;" glyph-name="cart" d="M895.696 281.218l90.89 449.681c5.001 24.727-13.899 47.93-39.202 47.93h-723.041l-30.141 149.102c-3.766 18.656-20.164 32.070-39.203 32.070h-115c-22.094 0-40-17.906-40-40s17.906-40 40-40h82.273l121.031-598.782c-73.938-20.804-128.305-88.835-128.305-169.342 0-96.976 78.899-175.875 175.875-175.875 96.985 0 175.881 78.899 175.881 175.875 0 35.342-10.489 68.28-28.505 95.884h262.492c-18.016-27.604-28.501-60.542-28.501-95.884 0-96.976 78.899-175.875 175.875-175.875 96.983 0 175.882 78.899 175.882 175.875 0 80.507-54.368 148.538-128.304 169.342v0zM290.875 16.002c-52.867 0-95.875 43.015-95.875 95.874 0 52.821 42.938 95.805 95.742 95.884 0.031 0 0.062-0.010 0.094-0.010 0.039 0 0.078 0.010 0.117 0.010 52.834-0.048 95.805-43.042 95.805-95.877 0-52.866-43.015-95.881-95.883-95.881zM323.601 287.758l-83.086 411.070h657.969l-83.087-411.070h-491.796zM848.125 16.002c-52.866 0-95.884 43.015-95.884 95.874 0 52.866 43.018 95.884 95.884 95.884 52.859 0 95.874-43.018 95.874-95.884 0-52.869-43.015-95.874-95.874-95.874z" />
<glyph unicode="&#xe901;" glyph-name="facebook" horiz-adv-x="998" d="M496.501 960c-274.21 0-496.501-223.705-496.501-499.659s222.291-499.659 496.501-499.659c274.211 0 496.503 223.705 496.503 499.659s-222.292 499.659-496.503 499.659zM635.043 656.476c0 0-46.702 0-65.489 0-23.219 0-27.916-9.452-27.916-33.608 0-19.955 0-58.027 0-58.027h93.405l-8.872-101.875h-84.273v-304.574h-120.798v303.262h-62.879v103.188h62.879c0 0 0 14.966 0 81.395 0 76.406 40.44 116.053 130.452 116.053 14.612 0 83.75 0 83.75 0v-105.813h-0.26z" />
<glyph unicode="&#xe902;" glyph-name="instagram" d="M518.018 960c-274.211 0-496.502-223.705-496.502-499.659s222.291-499.659 496.502-499.659c274.211 0 496.501 223.705 496.501 499.659 0.263 275.955-222.029 499.659-496.501 499.659zM788.837 347.438c-1.305-29.145-6-49.099-12.784-66.429-7.045-18.117-16.177-33.346-31.308-48.574-15.134-15.229-30.266-24.681-48.267-31.508-17.222-6.827-37.050-11.29-66.009-12.603-28.961-1.313-38.355-1.575-112.191-1.575s-83.228 0.263-112.188 1.575c-28.961 1.313-48.79 6.039-66.009 12.603-18.001 7.089-33.136 16.279-48.267 31.508-15.134 15.229-24.526 30.457-31.309 48.574-6.784 17.329-11.219 37.284-12.523 66.429s-1.566 38.597-1.566 112.903c0 74.306 0.261 83.758 1.566 112.903s6.001 49.099 12.523 66.429c7.045 18.117 16.175 33.346 31.309 48.574 15.132 15.229 30.266 24.681 48.267 31.508 17.219 6.827 37.048 11.29 66.009 12.866 28.961 1.313 38.353 1.575 112.188 1.575s83.23-0.263 112.191-1.575c28.958-1.313 48.787-6.039 66.009-12.866 18.001-7.089 33.133-16.279 48.267-31.508 15.132-15.229 24.523-30.457 31.308-48.574 6.785-17.329 11.219-37.284 12.784-66.429 1.305-29.145 1.565-38.597 1.565-112.903s-0.26-83.758-1.565-112.903zM518.015 551.713c-50.092 0-90.795-40.96-90.795-91.372s40.703-91.372 90.795-91.372c50.095 0 90.795 40.96 90.795 91.372s-40.44 91.372-90.795 91.372zM730.393 621.817c-4.957 12.866-10.957 21.793-20.349 31.508-9.395 9.715-18.524 15.491-31.311 20.48-9.652 3.676-24.001 8.139-50.614 9.452-28.698 1.313-37.31 1.575-110.101 1.575-72.793 0-81.403-0.263-110.104-1.575-26.611-1.313-40.96-5.776-50.614-9.452-12.784-4.989-21.656-11.028-31.308-20.48-9.392-9.715-15.394-18.642-20.351-31.508-3.652-9.715-8.087-24.156-9.392-50.937-1.305-28.882-1.565-37.547-1.565-110.802s0.26-81.92 1.565-110.802c1.305-26.782 5.74-41.223 9.392-50.937 4.957-12.866 10.959-21.793 20.351-31.508 9.652-9.452 18.524-15.491 31.308-20.48 9.654-3.676 24.004-8.139 50.614-9.452 28.701-1.313 37.31-1.575 110.104-1.575 72.791 0 81.403 0.263 110.101 1.575 26.613 1.313 40.963 5.776 50.614 9.452 12.787 4.989 21.656 11.028 31.311 20.48 9.652 9.715 15.392 18.642 20.349 31.508 3.655 9.715 8.090 24.156 9.395 50.937 1.302 28.882 1.565 37.547 1.565 110.802s-0.263 81.92-1.565 110.802c-1.305 26.782-5.74 41.485-9.395 50.937zM518.018 319.606c-77.228 0-139.847 63.015-139.847 140.734s62.619 140.734 139.847 140.734c77.228 0 139.844-63.015 139.844-140.734s-62.616-140.734-139.844-140.734zM663.602 573.768c-18.001 0-32.613 14.704-32.613 32.821s14.612 32.821 32.613 32.821c18.004 0 32.613-14.704 32.613-32.821s-14.609-32.821-32.613-32.821z" />
<glyph unicode="&#xe903;" glyph-name="youtube" d="M16.776 460.341c0 275.955 222.291 499.659 496.503 499.659 274.209 0 496.501-223.705 496.501-499.659s-222.292-499.659-496.501-499.659c-274.212 0-496.503 223.705-496.503 499.659zM823.755 195.413c34.178 9.19 61.051 36.496 70.183 71.155 16.696 62.753 16.696 193.772 16.696 193.772s0 131.019-16.696 193.772c-9.132 34.658-36.005 61.965-70.183 71.155-61.836 16.804-310.477 16.804-310.477 16.804s-248.383 0-310.478-16.804c-34.178-9.19-61.051-36.496-70.183-71.155-16.698-62.753-16.698-193.772-16.698-193.772s0-131.019 16.698-193.772c9.132-34.658 36.005-61.965 70.183-71.155 61.835-16.804 310.478-16.804 310.478-16.804s248.38 0 310.477 16.804zM639.559 460.341l-207.68-118.942v237.883l207.68-118.942z" />
<glyph unicode="&#xe904;" glyph-name="minus" d="M0 521.143h1024v-146.286h-1024v146.286z" />
<glyph unicode="&#xe905;" glyph-name="invalid" d="M28.444 49.778h967.111l-483.556 853.333-483.556-853.333zM568.889 163.556h-113.778v113.778h113.778v-113.778zM568.889 334.222h-113.778v227.556h113.778v-227.556z" />
<glyph unicode="&#xe906;" glyph-name="checkbox-outline" d="M910.222 846.222v-796.444h-796.444v796.444h796.444zM910.222 960h-796.444c-62.578 0-113.778-51.2-113.778-113.778v-796.444c0-62.578 51.2-113.778 113.778-113.778h796.444c62.578 0 113.778 51.2 113.778 113.778v796.444c0 62.578-51.2 113.778-113.778 113.778v0 0z" />
<glyph unicode="&#xe907;" glyph-name="checkbox-fill" d="M910.222 960h-796.444c-62.578 0-113.778-51.2-113.778-113.778v-796.444c0-62.578 51.2-113.778 113.778-113.778h796.444c62.578 0 113.778 51.2 113.778 113.778v796.444c0 62.578-51.2 113.778-113.778 113.778v0zM398.222 163.556l-284.444 273.504 79.644 76.582 204.8-196.924 432.356 415.727 79.644-76.581-512-492.308z" />
<glyph unicode="&#xe908;" glyph-name="search" d="M144 496c0-176.73 143.269-320 320-320 85.821 0 163.752 33.786 221.216 88.781 1.466 1.824 3.040 3.584 4.73 5.274s3.456 3.264 5.274 4.73c54.995 57.465 88.781 135.395 88.781 221.216 0 176.731-143.27 320-320 320s-320-143.269-320-320zM732.301 137.19c-74.79-56.013-167.671-89.19-268.301-89.19-247.423 0-448 200.576-448 448s200.577 448 448 448c247.424 0 448-200.577 448-448 0-100.629-33.178-193.51-89.19-268.301l166.445-166.445c24.998-24.992 24.998-65.517 0-90.509-24.992-24.992-65.517-24.992-90.509 0l-166.445 166.445z" />
<glyph unicode="&#xe909;" glyph-name="dot-left" d="M827.955 858.087c-27.273 0-49.382 22.814-49.382 50.956s22.11 50.957 49.382 50.957c27.277 0 49.387-22.814 49.387-50.957s-22.11-50.956-49.387-50.956zM925.188 909.043c0-28.143 22.11-50.956 49.387-50.956 27.273 0 49.382 22.814 49.382 50.956s-22.11 50.957-49.382 50.957c-27.277 0-49.387-22.814-49.387-50.957zM778.59 754.635c0-28.143 22.11-50.957 49.387-50.957 27.273 0 49.382 22.814 49.382 50.957s-22.11 50.956-49.382 50.956c-27.277 0-49.387-22.814-49.387-50.956zM628.902 754.635c0-28.143 22.11-50.957 49.382-50.957s49.382 22.814 49.382 50.957c0 28.143-22.11 50.956-49.382 50.956s-49.382-22.814-49.382-50.956zM678.285 552.364c-27.273 0-49.382 22.813-49.382 50.955s22.11 50.955 49.382 50.955c27.273 0 49.382-22.813 49.382-50.955s-22.11-50.955-49.382-50.955zM628.911 909.043c0-28.143 22.11-50.956 49.382-50.956s49.382 22.814 49.382 50.956c0 28.143-22.11 50.957-49.382 50.957s-49.382-22.814-49.382-50.957zM531.644 703.678c-27.277 0-49.387 22.814-49.387 50.957s22.11 50.956 49.387 50.956c27.273 0 49.382-22.814 49.382-50.956s-22.11-50.957-49.382-50.957zM482.257 603.319c0-28.141 22.11-50.955 49.387-50.955 27.273 0 49.382 22.813 49.382 50.955s-22.11 50.955-49.382 50.955c-27.277 0-49.387-22.813-49.387-50.955zM531.644 858.087c-27.277 0-49.387 22.814-49.387 50.956s22.11 50.957 49.387 50.957c27.273 0 49.382-22.814 49.382-50.957s-22.11-50.956-49.382-50.956zM335.591 754.635c0-28.143 22.11-50.957 49.384-50.957s49.385 22.814 49.385 50.957c0 28.143-22.11 50.956-49.385 50.956s-49.384-22.814-49.384-50.956zM384.975 552.364c-27.274 0-49.384 22.813-49.384 50.955s22.11 50.955 49.384 50.955c27.274 0 49.385-22.813 49.385-50.955s-22.11-50.955-49.385-50.955zM482.257 451.994c0-28.139 22.11-50.953 49.387-50.953 27.273 0 49.382 22.814 49.382 50.953 0 28.143-22.11 50.953-49.382 50.953-27.277 0-49.387-22.81-49.387-50.953zM384.975 401.041c-27.274 0-49.384 22.814-49.384 50.953 0 28.143 22.11 50.953 49.384 50.953s49.385-22.81 49.385-50.953c0-28.139-22.11-50.953-49.385-50.953zM628.898 297.591c0-28.139 22.11-50.953 49.382-50.953 27.277 0 49.387 22.814 49.387 50.953 0 28.143-22.11 50.957-49.387 50.957-27.273 0-49.382-22.814-49.382-50.957zM531.639 246.639c-27.277 0-49.387 22.814-49.387 50.953 0 28.143 22.11 50.957 49.387 50.957s49.387-22.814 49.387-50.957c0-28.139-22.11-50.953-49.387-50.953zM335.604 297.591c0-28.139 22.111-50.953 49.386-50.953s49.386 22.814 49.386 50.953c0 28.143-22.11 50.957-49.386 50.957s-49.386-22.814-49.386-50.957zM827.977 95.134c-27.277 0-49.387 22.81-49.387 50.948s22.11 50.948 49.387 50.948c27.273 0 49.382-22.81 49.382-50.948s-22.11-50.948-49.382-50.948zM628.902 146.082c0-28.139 22.11-50.948 49.382-50.948s49.382 22.81 49.382 50.948c0 28.139-22.11 50.948-49.382 50.948s-49.382-22.81-49.382-50.948zM531.644 95.134c-27.277 0-49.387 22.81-49.387 50.948s22.11 50.948 49.387 50.948c27.273 0 49.382-22.81 49.382-50.948s-22.11-50.948-49.382-50.948zM335.591 146.082c0-28.139 22.11-50.948 49.384-50.948s49.385 22.81 49.385 50.948c0 28.139-22.11 50.948-49.385 50.948s-49.384-22.81-49.384-50.948zM232.157 552.364c-27.274 0-49.384 22.813-49.384 50.955s22.11 50.955 49.384 50.955c27.274 0 49.384-22.813 49.384-50.955s-22.11-50.955-49.384-50.955zM182.773 451.994c0-28.139 22.11-50.953 49.384-50.953s49.384 22.814 49.384 50.953c0 28.143-22.11 50.953-49.384 50.953s-49.384-22.81-49.384-50.953zM232.155 246.639c-27.276 0-49.387 22.814-49.387 50.953 0 28.143 22.111 50.957 49.387 50.957s49.386-22.814 49.386-50.957c0-28.139-22.111-50.953-49.386-50.953zM925.227-11.605c0-28.143 22.11-50.957 49.387-50.957s49.387 22.814 49.387 50.957c0 28.143-22.11 50.957-49.387 50.957s-49.387-22.814-49.387-50.957zM827.968-62.562c-27.277 0-49.387 22.814-49.387 50.957s22.11 50.957 49.387 50.957c27.277 0 49.391-22.814 49.391-50.957s-22.114-50.957-49.391-50.957zM628.898-11.605c0-28.143 22.11-50.957 49.382-50.957 27.277 0 49.387 22.814 49.387 50.957s-22.11 50.957-49.387 50.957c-27.273 0-49.382-22.814-49.382-50.957zM531.639-62.562c-27.277 0-49.387 22.814-49.387 50.957s22.11 50.957 49.387 50.957c27.277 0 49.387-22.814 49.387-50.957s-22.11-50.957-49.387-50.957zM35.924 451.994c0-28.139 22.11-50.953 49.384-50.953s49.384 22.814 49.384 50.953c0 28.143-22.11 50.953-49.384 50.953s-49.384-22.81-49.384-50.953z" />
<glyph unicode="&#xe90a;" glyph-name="dot-right" d="M98.81 909.043c0-28.143-22.11-50.956-49.384-50.956s-49.384 22.814-49.384 50.956c0 28.143 22.11 50.957 49.384 50.957s49.384-22.814 49.384-50.957zM245.408 754.635c0-28.143-22.11-50.957-49.384-50.957s-49.384 22.814-49.384 50.957c0 28.143 22.11 50.956 49.384 50.956s49.384-22.814 49.384-50.956zM196.043 858.087c27.274 0 49.384 22.814 49.384 50.956s-22.11 50.957-49.384 50.957c-27.274 0-49.384-22.814-49.384-50.957s22.11-50.956 49.384-50.956zM395.098 754.635c0-28.143-22.11-50.957-49.384-50.957s-49.384 22.814-49.384 50.957c0 28.143 22.11 50.956 49.384 50.956s49.384-22.814 49.384-50.956zM345.715 552.364c27.274 0 49.384 22.813 49.384 50.955s-22.11 50.955-49.384 50.955c-27.274 0-49.384-22.813-49.384-50.955s22.11-50.955 49.384-50.955zM395.091 909.043c0-28.143-22.11-50.956-49.384-50.956s-49.384 22.814-49.384 50.956c0 28.143 22.11 50.957 49.384 50.957s49.384-22.814 49.384-50.957zM492.356 703.678c27.277 0 49.387 22.814 49.387 50.957s-22.11 50.956-49.387 50.956c-27.273 0-49.382-22.814-49.382-50.956s22.11-50.957 49.382-50.957zM541.743 603.319c0-28.141-22.11-50.955-49.387-50.955-27.273 0-49.382 22.813-49.382 50.955s22.11 50.955 49.382 50.955c27.277 0 49.387-22.813 49.387-50.955zM492.356 858.087c27.277 0 49.387 22.814 49.387 50.956s-22.11 50.957-49.387 50.957c-27.273 0-49.382-22.814-49.382-50.957s22.11-50.956 49.382-50.956zM688.41 754.635c0-28.143-22.11-50.957-49.387-50.957-27.273 0-49.382 22.814-49.382 50.957s22.11 50.956 49.382 50.956c27.277 0 49.387-22.814 49.387-50.956zM639.023 552.364c27.277 0 49.387 22.813 49.387 50.955s-22.11 50.955-49.387 50.955c-27.273 0-49.382-22.813-49.382-50.955s22.11-50.955 49.382-50.955zM541.743 451.994c0-28.139-22.11-50.953-49.387-50.953-27.273 0-49.382 22.814-49.382 50.953 0 28.143 22.11 50.953 49.382 50.953 27.277 0 49.387-22.81 49.387-50.953zM639.023 401.041c27.277 0 49.387 22.814 49.387 50.953 0 28.143-22.11 50.953-49.387 50.953-27.273 0-49.382-22.81-49.382-50.953 0-28.139 22.11-50.953 49.382-50.953zM395.104 297.591c0-28.139-22.111-50.953-49.386-50.953s-49.387 22.814-49.387 50.953c0 28.143 22.111 50.957 49.387 50.957s49.386-22.814 49.386-50.957zM492.361 246.639c27.277 0 49.387 22.814 49.387 50.953 0 28.143-22.11 50.957-49.387 50.957s-49.387-22.814-49.387-50.957c0-28.139 22.11-50.953 49.387-50.953zM688.397 297.591c0-28.139-22.114-50.953-49.387-50.953-27.277 0-49.387 22.814-49.387 50.953 0 28.143 22.11 50.957 49.387 50.957 27.273 0 49.387-22.814 49.387-50.957zM196.024 95.134c27.274 0 49.384 22.81 49.384 50.948s-22.11 50.948-49.384 50.948c-27.274 0-49.384-22.81-49.384-50.948s22.11-50.948 49.384-50.948zM395.098 146.082c0-28.139-22.11-50.948-49.384-50.948s-49.384 22.81-49.384 50.948c0 28.139 22.11 50.948 49.384 50.948s49.384-22.81 49.384-50.948zM492.356 95.134c27.277 0 49.387 22.81 49.387 50.948s-22.11 50.948-49.387 50.948c-27.273 0-49.382-22.81-49.382-50.948s22.11-50.948 49.382-50.948zM688.41 146.082c0-28.139-22.11-50.948-49.387-50.948-27.273 0-49.382 22.81-49.382 50.948s22.11 50.948 49.382 50.948c27.277 0 49.387-22.81 49.387-50.948zM791.842 552.364c27.273 0 49.382 22.813 49.382 50.955s-22.11 50.955-49.382 50.955c-27.273 0-49.382-22.813-49.382-50.955s22.11-50.955 49.382-50.955zM841.225 451.994c0-28.139-22.11-50.953-49.382-50.953s-49.382 22.814-49.382 50.953c0 28.143 22.11 50.953 49.382 50.953s49.382-22.81 49.382-50.953zM791.846 246.639c27.273 0 49.387 22.814 49.387 50.953 0 28.143-22.114 50.957-49.387 50.957-27.277 0-49.387-22.814-49.387-50.957 0-28.139 22.11-50.953 49.387-50.953zM98.773-11.605c0-28.143-22.111-50.957-49.387-50.957s-49.386 22.814-49.386 50.957c0 28.143 22.111 50.957 49.386 50.957s49.387-22.814 49.387-50.957zM196.029-62.562c27.277 0 49.389 22.814 49.389 50.957s-22.112 50.957-49.389 50.957c-27.277 0-49.389-22.814-49.389-50.957s22.112-50.957 49.389-50.957zM395.104-11.605c0-28.143-22.111-50.957-49.386-50.957s-49.387 22.814-49.387 50.957c0 28.143 22.111 50.957 49.387 50.957s49.386-22.814 49.386-50.957zM492.361-62.562c27.277 0 49.387 22.814 49.387 50.957s-22.11 50.957-49.387 50.957c-27.277 0-49.387-22.814-49.387-50.957s22.11-50.957 49.387-50.957zM988.075 451.994c0-28.139-22.11-50.953-49.382-50.953-27.277 0-49.387 22.814-49.387 50.953 0 28.143 22.11 50.953 49.387 50.953 27.273 0 49.382-22.81 49.382-50.953z" />
<glyph unicode="&#xe90b;" glyph-name="comment" horiz-adv-x="1117" d="M957.733 960h-798.373c-87.862 0-159.36-70.938-159.36-158.111v-534.602c0-87.194 71.498-158.11 159.36-158.11h62.531l1.222-139.581c0.109-12.861 7.549-24.548 19.222-30.175 4.735-2.295 9.84-3.421 14.923-3.421 7.418 0 14.771 2.402 20.88 7.056l216.938 166.121h462.657c87.882 0 159.358 70.94 159.358 158.11v534.602c0 87.173-71.498 158.111-159.358 158.111z" />
<glyph unicode="&#xe90c;" glyph-name="reload" d="M512 960c-281.6 0-512-230.4-512-512s230.4-512 512-512c236.8 0 435.2 166.4 512 384h-128c-76.8-147.2-217.6-256-384-256-211.2 0-384 172.8-384 384s172.8 384 384 384c108.8 0 198.4-44.8 256-128l-192-192h448v448l-128-128c-115.2 64-243.2 128-384 128z" />
<glyph unicode="&#xe90d;" glyph-name="three-dots-vertical" horiz-adv-x="256" d="M128 704c70.4 0 128 57.6 128 128s-57.6 128-128 128c-70.4 0-128-57.6-128-128s57.6-128 128-128zM128 576c-70.4 0-128-57.6-128-128s57.6-128 128-128c70.4 0 128 57.6 128 128s-57.6 128-128 128zM0 64c0 70.4 57.6 128 128 128s128-57.6 128-128c0-70.4-57.6-128-128-128s-128 57.6-128 128z" />
<glyph unicode="&#xe90e;" glyph-name="bell" horiz-adv-x="853" d="M777.015 218.411l73.259-122.112c3.925-6.571 4.053-14.848 0.256-21.508-3.797-6.656-10.88-10.79-18.56-10.79h-810.666c-7.68 0-14.72 4.139-18.518 10.837-3.798 6.694-3.712 14.891 0.256 21.504l73.258 122.112c33.792 56.363 51.67 120.875 51.67 186.581v106.965c0 135.040 90.112 249.258 213.332 286.080v76.586c0 47.062 38.272 85.334 85.334 85.334s85.335-38.272 85.335-85.334v-76.586c123.221-36.822 213.333-151.040 213.333-286.080v-106.965c0-65.707 17.877-130.261 51.712-186.624zM426.617-64c-59.348 0-110.292 35.072-134.356 85.333h268.713c-24.064-50.261-75.008-85.333-134.356-85.333z" />
<glyph unicode="&#xe90f;" glyph-name="list" horiz-adv-x="1536" d="M0 789.333v170.667h1536v-170.667h-1536zM0 362.667h1536v170.667h-1536v-170.667zM0-64h1536v170.667h-1536v-170.667z" />
<glyph unicode="&#xe910;" glyph-name="chevron-down" horiz-adv-x="1489" d="M692.497 58.76l-623.594 645.362c-39.689 41.053-39.689 107.613 0 148.647 39.653 41.036 103.967 41.036 143.617 0l551.786-571.047 551.767 571.030c39.666 41.036 103.973 41.036 143.63 0 39.666-41.036 39.666-107.594 0-148.646l-623.604-645.363c-19.837-20.518-45.807-30.769-71.79-30.769-25.996 0-51.985 10.271-71.812 30.786z" />
<glyph unicode="&#xe911;" glyph-name="chevron-up" horiz-adv-x="1489" d="M818.463 852.763l640.421-645.363c40.765-41.052 40.765-107.613 0-148.646-40.718-41.039-106.775-41.039-147.493 0l-566.673 571.047-566.656-571.030c-40.739-41.037-106.782-41.037-147.506 0-40.74 41.036-40.74 107.594 0 148.646l640.431 645.363c20.372 20.518 47.043 30.766 73.727 30.766 26.698 0 53.388-10.267 73.749-30.782z" />
<glyph unicode="&#xe912;" glyph-name="x" d="M1024 857.6l-102.4 102.4-409.6-409.6-409.6 409.6-102.4-102.4 409.6-409.6-409.6-409.6 102.4-102.4 409.6 409.6 409.6-409.6 102.4 102.4-409.6 409.6 409.6 409.6z" />
<glyph unicode="&#xe913;" glyph-name="chevron-right" horiz-adv-x="542" d="M519.226 426.338l-406.274-417.573c-25.844-26.576-67.745-26.576-93.577 0-25.833 26.552-25.833 69.62 0 96.172l359.49 369.486-359.479 369.477c-25.834 26.564-25.834 69.626 0 96.178 25.833 26.564 67.733 26.564 93.577 0l406.274-417.581c12.917-13.283 19.368-30.673 19.368-48.072 0-17.407-6.464-34.811-19.379-48.087z" />
<glyph unicode="&#xe914;" glyph-name="chevron-left" horiz-adv-x="542" d="M19.362 426.338l406.274-417.573c25.844-26.576 67.745-26.576 93.577 0 25.834 26.552 25.834 69.62 0 96.172l-359.49 369.486 359.479 369.477c25.833 26.564 25.833 69.626 0 96.178-25.834 26.564-67.733 26.564-93.577 0l-406.274-417.581c-12.917-13.283-19.368-30.673-19.368-48.072 0-17.407 6.464-34.811 19.378-48.087z" />
<glyph unicode="&#xe915;" glyph-name="check" horiz-adv-x="1317" d="M438.85 140.8l-307.2 307.201-102.4-102.4 409.6-409.601 877.714 877.716-102.4 102.4-775.314-775.316z" />
<glyph unicode="&#xe916;" glyph-name="arrow-left" d="M1024 512h-780.8l358.4 358.4-89.6 89.6-512-512 512-512 89.6 89.6-358.4 358.4h780.8v128z" />
<glyph unicode="&#xe917;" glyph-name="arrow-right" d="M512 960l-89.6-89.6 358.4-358.4h-780.8v-128h780.8l-358.4-358.4 89.6-89.6 512 512-512 512z" />
<glyph unicode="&#xe918;" glyph-name="caret-up-fill" horiz-adv-x="2048" d="M0-64l1024 1024 1024-1024h-2048z" />
<glyph unicode="&#xe919;" glyph-name="caret-down-fill" horiz-adv-x="2048" d="M0 960l1024-1024 1024 1024h-2048z" />
<glyph unicode="&#xe91a;" glyph-name="plus" d="M438.857 960v-438.857h-438.857v-146.286h438.857v-438.857h146.286v438.857h438.857v146.286h-438.857v438.857h-146.286z" />
<glyph unicode="&#xe91b;" glyph-name="share" d="M1024 447.355l-425.555 467.554v-278.951h-90.477c-280.547 0-507.969-227.867-507.969-508.966v-147.826l40.188 44.127c136.633 149.996 329.961 235.46 532.648 235.46h25.609v-278.949l425.555 467.551z" />
<glyph unicode="&#xe91c;" glyph-name="instagram2" d="M870.4 921.6h-716.8c-56.32 0-102.4-46.080-102.4-102.4v-716.8c0-56.371 46.080-102.4 102.4-102.4h716.8c56.32 0 102.4 46.029 102.4 102.4v716.8c0 56.32-46.080 102.4-102.4 102.4zM511.181 178.022c156.621 0 283.546 127.027 283.546 283.597 0 17.306-2.202 33.997-5.274 50.381h80.947v-369.459c0-19.558-15.872-35.328-35.482-35.328h-645.837c-19.61 0-35.482 15.77-35.482 35.328v369.459h79.309c-3.123-16.384-5.325-33.075-5.325-50.381 0-156.621 127.027-283.597 283.597-283.597zM333.978 461.619c0 97.894 79.36 177.203 177.254 177.203 97.843 0 177.254-79.309 177.254-177.203s-79.411-177.254-177.254-177.254c-97.946 0-177.254 79.36-177.254 177.254zM834.918 665.6h-82.688c-19.558 0-35.43 15.974-35.43 35.43v82.79c0 19.558 15.872 35.379 35.379 35.379h82.688c19.661 0 35.533-15.821 35.533-35.379v-82.739c0-19.507-15.872-35.482-35.482-35.482z" />
<glyph unicode="&#xe91d;" glyph-name="envelope" d="M910.222 796.444h-796.444c-31.417 0-56.889-25.472-56.889-56.889v-568.889c0-31.417 25.472-56.889 56.889-56.889h796.444c31.417 0 56.889 25.472 56.889 56.889v568.889c0 31.417-25.472 56.889-56.889 56.889zM831.611 682.667l-319.611-217.959-319.611 217.959h639.221zM853.333 256c0-15.708-12.722-28.444-28.444-28.444h-625.778c-15.723 0-28.444 12.736-28.444 28.444v305.070l312.722-211.806c8.834-5.292 18.724-7.931 28.612-7.931s19.778 2.638 28.612 7.931l312.722 211.806v-305.070z" />
<glyph unicode="&#xe91e;" glyph-name="global" d="M512-64c282.77 0 512 229.23 512 512s-229.23 512-512 512c-282.77 0-512-229.23-512-512s229.23-512 512-512zM731.608 604.071c0.030-0.172 0.049-0.345 0.057-0.517 66.409-93.071 66.409-218.034 0-311.099-0.065-0.181-0.143-0.353-0.232-0.52-0.674-0.962-1.501-1.792-2.194-2.732-5.018-6.855-10.345-13.455-15.98-19.796-0.949-1.067-1.9-2.129-2.856-3.18-0.598-0.658-1.199-1.31-1.803-1.959-5.724-6.19-11.798-12.099-18.214-17.734-1.175-1.040-2.272-2.118-3.447-3.139-15.659-13.414-32.806-24.988-51.1-34.501-0.391-0.205-0.79-0.396-1.194-0.585-0.353-0.164-0.709-0.334-1.059-0.512-8.146-4.142-16.503-7.863-25.029-11.148-1.83-0.617-3.581-1.272-5.508-1.927-7.521-2.735-15.223-5.128-23.105-7.181l-1.099-0.296c-1.946-0.517-3.894-1.040-5.869-1.493-7.626-1.792-15.403-3.158-23.277-4.277-0.957-0.137-1.908-0.296-2.856-0.453-1.423-0.234-2.846-0.472-4.287-0.644-20.286-2.466-40.793-2.466-61.074 0-1.447 0.172-2.87 0.41-4.293 0.644-0.949 0.156-1.897 0.315-2.851 0.453-7.877 1.118-15.576 2.485-23.277 4.277-1.983 0.455-3.937 0.978-5.888 1.498l-1.083 0.291c-7.817 2.053-15.519 4.449-23.105 7.181-1.493 0.472-2.932 0.994-4.46 1.547l-1.046 0.38c-8.529 3.285-16.883 7.006-25.031 11.148-0.45 0.229-0.908 0.439-1.361 0.655-0.299 0.143-0.598 0.288-0.892 0.442-18.295 9.51-35.441 21.086-51.098 34.501-0.631 0.55-1.24 1.113-1.849 1.679-0.525 0.488-1.054 0.978-1.598 1.461-6.343 5.621-12.412 11.533-18.214 17.734-1.579 1.692-3.121 3.406-4.659 5.139-5.635 6.341-10.962 12.94-15.98 19.796-0.321 0.434-0.671 0.846-1.021 1.258-0.407 0.48-0.814 0.957-1.175 1.474-0.089 0.167-0.167 0.34-0.232 0.52-66.409 93.068-66.409 218.031 0 311.099 0.065 0.178 0.143 0.353 0.232 0.52 0.358 0.515 0.763 0.986 1.164 1.461 0.353 0.418 0.706 0.833 1.032 1.272 5.018 6.869 10.345 13.466 15.98 19.793 1.539 1.733 3.080 3.447 4.659 5.142 5.724 6.171 11.795 12.083 18.214 17.731 0.536 0.474 1.056 0.959 1.576 1.442 0.617 0.571 1.231 1.143 1.87 1.698 15.713 13.425 32.916 25.002 51.273 34.503 0.426 0.224 0.862 0.426 1.302 0.633 0.318 0.151 0.636 0.302 0.951 0.463 8.146 4.14 16.503 7.861 25.029 11.147 1.83 0.617 3.581 1.271 5.508 1.926 7.534 2.735 15.236 5.128 23.105 7.181l1.024 0.275c1.97 0.528 3.942 1.056 5.945 1.517 3.756 0.883 7.551 1.661 11.374 2.358 3.94 0.719 7.909 1.35 11.903 1.916 0.962 0.14 1.919 0.298 2.873 0.455 1.417 0.235 2.835 0.469 4.271 0.642 20.283 2.465 40.79 2.465 61.074 0 2.406-0.288 4.756-0.752 7.144-1.097 7.877-1.117 15.576-2.483 23.277-4.275 2.35-0.539 4.659-1.174 6.971-1.791 7.817-2.054 15.519-4.447 23.105-7.181 1.461-0.461 2.87-0.972 4.36-1.511l1.145-0.414c8.529-3.286 16.883-7.008 25.031-11.147 0.358-0.186 0.725-0.358 1.086-0.531 0.393-0.183 0.784-0.369 1.167-0.566 18.295-9.512 35.438-21.089 51.098-34.503 0.641-0.558 1.258-1.129 1.878-1.706 0.517-0.48 1.035-0.959 1.568-1.434 6.354-5.621 12.425-11.533 18.214-17.731 1.579-1.695 3.121-3.409 4.659-5.142 5.621-6.341 10.949-12.937 15.98-19.793 0.296-0.402 0.617-0.784 0.938-1.164 0.434-0.509 0.873-1.016 1.258-1.571zM742.176 467.254c-2.948 35.358-14.067 69.543-32.48 99.87-29.521-15.072-61.052-25.824-93.631-31.922 5.761-22.253 9.37-45.005 10.782-67.948h115.329zM562.696 673.31c-0.531 0.148-1.059 0.296-1.598 0.423-2.638 0.574-5.373 0.843-8.046 1.326 21.261-32.124 38.659-66.649 51.828-102.853 28.429 5.080 56.048 13.953 82.117 26.376-0.577 0.636-1.194 1.253-1.77 1.927-4.543 5.12-9.24 10.070-14.169 14.748-0.814 0.773-1.652 1.523-2.487 2.269-0.412 0.366-0.822 0.733-1.229 1.099-4.7 4.403-9.615 8.532-14.748 12.382-1.331 1.075-2.676 2.021-4.026 3.002-5.236 3.864-10.628 7.491-16.174 10.879l-3.848 2.331c-5.842 3.387-11.822 6.54-17.944 9.453-0.561 0.261-1.113 0.534-1.665 0.808-0.555 0.275-1.108 0.55-1.668 0.808-6.392 2.832-12.919 5.392-19.542 7.702-0.38 0.14-0.76 0.283-1.14 0.428-0.622 0.234-1.25 0.474-1.884 0.69-6.68 2.309-13.514 4.158-20.407 5.775-0.542 0.127-1.070 0.275-1.598 0.426zM446.383 528.866c-5.524-20.143-9.070-40.777-10.588-61.61h152.641c-1.487 20.863-5.015 41.531-10.531 61.707-21.83-2.622-43.8-3.94-65.789-3.948-21.967-0.024-43.916 1.261-65.733 3.851zM577.846 367.136c5.527 20.146 9.073 40.779 10.59 61.612h-152.643c1.498-20.833 5.023-41.467 10.531-61.612 21.835 2.59 43.803 3.875 65.792 3.851 21.967 0.027 43.916-1.258 65.73-3.851zM565.776 566.372c-13.73 35.441-31.749 69.066-53.66 100.12-21.86-31.070-39.858-64.684-53.604-100.101 17.807-1.892 35.697-2.846 53.604-2.867 17.925 0.005 35.835 0.954 53.66 2.848zM353.196 615.276c-4.929-4.678-9.647-9.626-14.172-14.746-0.34-0.396-0.693-0.771-1.040-1.151-0.248-0.267-0.493-0.534-0.73-0.811 26.069-12.425 53.687-21.297 82.117-26.379 13.175 36.212 30.577 70.742 51.849 102.872-2.676-0.48-5.411-0.749-8.049-1.329-0.601-0.127-1.186-0.288-1.77-0.45-0.48-0.132-0.957-0.264-1.442-0.377-6.934-1.695-13.73-3.544-20.41-5.778-0.706-0.221-1.342-0.469-1.97-0.714-0.35-0.137-0.695-0.272-1.054-0.402-6.624-2.253-13.15-4.815-19.542-7.702-0.552-0.259-1.099-0.528-1.646-0.8-0.558-0.278-1.121-0.555-1.684-0.819-3.498-1.649-6.947-3.385-10.353-5.206-2.557-1.366-5.088-2.784-7.591-4.247l-3.851-2.328c-5.546-3.401-10.938-7.031-16.174-10.881-1.347-1.075-2.695-1.981-4.023-3.002-5.082-3.929-10-8.055-14.748-12.38-1.231-1.118-2.503-2.215-3.716-3.371zM408.145 535.202c-32.571 6.101-64.097 16.853-93.61 31.922-18.413-30.327-29.532-64.512-32.48-99.87h115.327c1.407 22.943 5.012 45.695 10.763 67.948zM282.055 428.749c2.945-35.358 14.067-69.546 32.48-99.87 29.518 15.072 61.052 25.824 93.629 31.925-5.759 22.25-9.37 45.002-10.782 67.945h-115.327zM461.549 222.693c0.525-0.148 1.051-0.296 1.585-0.42 2.638-0.579 5.373-0.849 8.046-1.326-21.264 32.124-38.661 66.646-51.831 102.85-28.427-5.080-56.045-13.951-82.117-26.376 0.579-0.636 1.194-1.253 1.773-1.927 4.543-5.12 9.24-10.068 14.169-14.748 0.814-0.773 1.655-1.523 2.49-2.272 0.412-0.366 0.822-0.73 1.226-1.097 4.7-4.403 9.615-8.532 14.748-12.38 1.329-1.078 2.676-2.021 4.023-3.005 5.239-3.864 10.631-7.489 16.174-10.879l3.851-2.328c5.842-3.39 11.822-6.54 17.944-9.453 0.552-0.259 1.099-0.528 1.646-0.8 0.561-0.278 1.121-0.555 1.684-0.819 6.395-2.829 12.921-5.392 19.545-7.702 1-0.366 2.002-0.771 3.023-1.118 6.68-2.309 13.514-4.158 20.407-5.775 0.544-0.127 1.078-0.278 1.611-0.426zM458.456 329.631c13.727-35.441 31.749-69.066 53.66-100.12 21.857 31.070 39.858 64.684 53.601 100.101l0.019 0.019c-35.657 3.837-71.623 3.837-107.28 0zM671.035 280.727c4.929 4.678 9.644 9.626 14.172 14.748 0.577 0.674 1.194 1.291 1.749 1.943-26.069 12.423-53.687 21.297-82.114 26.376-13.169-36.204-30.569-70.726-51.831-102.853 2.676 0.482 5.411 0.752 8.046 1.331 0.606 0.127 1.194 0.288 1.781 0.45 0.477 0.132 0.951 0.264 1.434 0.377 6.934 1.692 13.73 3.541 20.41 5.775 1.097 0.348 2.021 0.752 3.023 1.118 6.621 2.253 13.15 4.813 19.542 7.702 0.561 0.259 1.116 0.536 1.671 0.811 0.552 0.272 1.102 0.544 1.66 0.806 6.136 2.9 12.116 6.052 17.944 9.453l3.851 2.331c5.546 3.401 10.935 7.028 16.174 10.879 1.347 0.981 2.695 1.983 4.023 3.002 5.082 3.915 10 8.041 14.748 12.38 0.407 0.369 0.819 0.736 1.229 1.102 0.838 0.746 1.676 1.496 2.487 2.269zM616.084 360.804c32.574-6.104 64.1-16.856 93.612-31.925 18.413 30.327 29.532 64.515 32.48 99.87h-115.329c-1.404-22.94-5.010-45.695-10.763-67.945z" />
<glyph unicode="&#xe91f;" glyph-name="location" d="M512-64c282.77 0 512 229.23 512 512s-229.23 512-512 512c-282.77 0-512-229.23-512-512s229.23-512 512-512zM529.826 717.429c67.837-1.383 128.838-37.593 163.182-96.861 35.104-60.58 36.066-133.352 2.571-194.662l-140.517-257.188c-6.174-10.73-17.236-17.139-29.586-17.139-12.355 0-23.415 6.405-29.588 17.139l-0.191 0.34-140.328 256.849c-33.496 61.311-32.536 134.082 2.571 194.662 34.344 59.268 95.345 95.478 163.18 96.861 2.897 0.061 5.813 0.061 8.707 0zM445.893 540.632c0-43.881 35.7-79.578 79.581-79.578s79.578 35.697 79.578 79.578c0 43.881-35.7 79.578-79.578 79.578-43.881 0-79.581-35.697-79.581-79.578z" />
<glyph unicode="&#xe920;" glyph-name="phone" d="M873.976 810.103c-199.979 199.918-524.161 199.87-724.079-0.11s-199.87-524.16 0.11-724.077c199.98-199.92 524.16-199.871 724.077 0.108 96.013 96.043 149.938 226.293 149.908 362.094-0.030 135.78-53.992 265.989-150.016 361.985zM775.397 246.8c-0.022-0.024-0.043-0.046-0.067-0.070v0.172l-25.942-25.772c-33.549-33.973-82.413-47.95-128.854-36.864-46.791 12.525-91.271 32.461-131.754 59.050-37.613 24.040-72.47 52.14-103.936 83.798-28.955 28.742-54.967 60.303-77.654 94.208-24.816 36.484-44.458 76.229-58.368 118.102-15.946 49.192-2.732 103.171 34.135 139.434l30.378 30.379c8.445 8.484 22.17 8.514 30.653 0.068 0.022-0.022 0.046-0.044 0.067-0.068l95.914-95.915c8.483-8.445 8.513-22.17 0.067-30.65-0.022-0.024-0.043-0.046-0.067-0.070l-56.32-56.32c-16.16-15.982-18.192-41.383-4.778-59.734 20.37-27.955 42.911-54.261 67.414-78.676 27.317-27.438 57.015-52.394 88.746-74.582 18.332-12.789 43.189-10.633 59.050 5.12l54.442 55.296c8.445 8.483 22.17 8.513 30.653 0.067 0.022-0.022 0.043-0.043 0.067-0.067l96.086-96.256c8.486-8.445 8.515-22.167 0.070-30.65z" />
<glyph unicode="&#xea84;" glyph-name="mail2" d="M853.342 960h-682.656c-93.874 0-170.686-76.81-170.686-170.69v-682.622c0-93.938 76.812-170.688 170.686-170.688h682.656c93.876 0 170.658 76.75 170.658 170.69v682.62c0 93.88-76.782 170.69-170.658 170.69zM853.342 832c7.988 0 15.546-2.334 22.020-6.342l-363.362-300.404-363.354 300.4c6.478 4.010 14.044 6.346 22.040 6.346h682.656zM170.686 64c-1.924 0-3.82 0.146-5.684 0.408l225.626 312.966-29.256 29.254-233.372-233.37v611.138l384-464.396 384 464.394v-611.136l-233.372 233.37-29.254-29.254 225.628-312.968c-1.858-0.26-3.746-0.406-5.662-0.406h-682.654z" />
<glyph unicode="&#xea8b;" glyph-name="google-plus" d="M325.8 502.6v-111.8h184.8c-7.4-48-55.8-140.6-184.8-140.6-111.2 0-202 92.2-202 205.8s90.8 205.8 202 205.8c63.4 0 105.6-27 129.8-50.2l88.4 85.2c-56.8 53-130.4 85.2-218.2 85.2-180.2-0.2-325.8-145.8-325.8-326s145.6-325.8 325.8-325.8c188 0 312.8 132.2 312.8 318.4 0 21.4-2.4 37.8-5.2 54h-307.6zM1024 512h-96v96h-96v-96h-96v-96h96v-96h96v96h96z" />
<glyph unicode="&#xea90;" glyph-name="facebook1" d="M608 768h160v192h-160c-123.514 0-224-100.486-224-224v-96h-128v-192h128v-512h192v512h160l32 192h-192v96c0 17.346 14.654 32 32 32z" />
<glyph unicode="&#xea92;" glyph-name="instagram1" d="M512 867.8c136.8 0 153-0.6 206.8-3 50-2.2 77-10.6 95-17.6 23.8-9.2 41-20.4 58.8-38.2 18-18 29-35 38.4-58.8 7-18 15.4-45.2 17.6-95 2.4-54 3-70.2 3-206.8s-0.6-153-3-206.8c-2.2-50-10.6-77-17.6-95-9.2-23.8-20.4-41-38.2-58.8-18-18-35-29-58.8-38.4-18-7-45.2-15.4-95-17.6-54-2.4-70.2-3-206.8-3s-153 0.6-206.8 3c-50 2.2-77 10.6-95 17.6-23.8 9.2-41 20.4-58.8 38.2-18 18-29 35-38.4 58.8-7 18-15.4 45.2-17.6 95-2.4 54-3 70.2-3 206.8s0.6 153 3 206.8c2.2 50 10.6 77 17.6 95 9.2 23.8 20.4 41 38.2 58.8 18 18 35 29 58.8 38.4 18 7 45.2 15.4 95 17.6 53.8 2.4 70 3 206.8 3zM512 960c-139 0-156.4-0.6-211-3-54.4-2.4-91.8-11.2-124.2-23.8-33.8-13.2-62.4-30.6-90.8-59.2-28.6-28.4-46-57-59.2-90.6-12.6-32.6-21.4-69.8-23.8-124.2-2.4-54.8-3-72.2-3-211.2s0.6-156.4 3-211c2.4-54.4 11.2-91.8 23.8-124.2 13.2-33.8 30.6-62.4 59.2-90.8 28.4-28.4 57-46 90.6-59 32.6-12.6 69.8-21.4 124.2-23.8 54.6-2.4 72-3 211-3s156.4 0.6 211 3c54.4 2.4 91.8 11.2 124.2 23.8 33.6 13 62.2 30.6 90.6 59s46 57 59 90.6c12.6 32.6 21.4 69.8 23.8 124.2 2.4 54.6 3 72 3 211s-0.6 156.4-3 211c-2.4 54.4-11.2 91.8-23.8 124.2-12.6 34-30 62.6-58.6 91-28.4 28.4-57 46-90.6 59-32.6 12.6-69.8 21.4-124.2 23.8-54.8 2.6-72.2 3.2-211.2 3.2v0zM512 711c-145.2 0-263-117.8-263-263s117.8-263 263-263 263 117.8 263 263c0 145.2-117.8 263-263 263zM512 277.4c-94.2 0-170.6 76.4-170.6 170.6s76.4 170.6 170.6 170.6c94.2 0 170.6-76.4 170.6-170.6s-76.4-170.6-170.6-170.6zM846.8 721.4c0-33.91-27.49-61.4-61.4-61.4s-61.4 27.49-61.4 61.4c0 33.91 27.49 61.4 61.4 61.4s61.4-27.49 61.4-61.4z" />
<glyph unicode="&#xea93;" glyph-name="whatsapp" d="M873 811.2c-95.8 96-223.2 148.8-359 148.8-279.6 0-507.2-227.6-507.2-507.4 0-89.4 23.4-176.8 67.8-253.6l-72-263 269 70.6c74.2-40.4 157.6-61.8 242.4-61.8h0.2c0 0 0 0 0 0 279.6 0 507.4 227.6 507.4 507.4 0 135.6-52.8 263-148.6 359zM514.2 30.4v0c-75.8 0-150 20.4-214.8 58.8l-15.4 9.2-159.6-41.8 42.6 155.6-10 16c-42.4 67-64.6 144.6-64.6 224.4 0 232.6 189.2 421.8 422 421.8 112.6 0 218.6-44 298.2-123.6 79.6-79.8 123.4-185.6 123.4-298.4-0.2-232.8-189.4-422-421.8-422zM745.4 346.4c-12.6 6.4-75 37-86.6 41.2s-20 6.4-28.6-6.4c-8.4-12.6-32.8-41.2-40.2-49.8-7.4-8.4-14.8-9.6-27.4-3.2s-53.6 19.8-102 63c-37.6 33.6-63.2 75.2-70.6 87.8s-0.8 19.6 5.6 25.8c5.8 5.6 12.6 14.8 19 22.2s8.4 12.6 12.6 21.2c4.2 8.4 2.2 15.8-1 22.2s-28.6 68.8-39 94.2c-10.2 24.8-20.8 21.4-28.6 21.8-7.4 0.4-15.8 0.4-24.2 0.4s-22.2-3.2-33.8-15.8c-11.6-12.6-44.4-43.4-44.4-105.8s45.4-122.6 51.8-131.2c6.4-8.4 89.4-136.6 216.6-191.4 30.2-13 53.8-20.8 72.2-26.8 30.4-9.6 58-8.2 79.8-5 24.4 3.6 75 30.6 85.6 60.2s10.6 55 7.4 60.2c-3 5.6-11.4 8.8-24.2 15.2z" />
<glyph unicode="&#xea96;" glyph-name="twitter" d="M1024 733.6c-37.6-16.8-78.2-28-120.6-33 43.4 26 76.6 67.2 92.4 116.2-40.6-24-85.6-41.6-133.4-51-38.4 40.8-93 66.2-153.4 66.2-116 0-210-94-210-210 0-16.4 1.8-32.4 5.4-47.8-174.6 8.8-329.4 92.4-433 219.6-18-31-28.4-67.2-28.4-105.6 0-72.8 37-137.2 93.4-174.8-34.4 1-66.8 10.6-95.2 26.2 0-0.8 0-1.8 0-2.6 0-101.8 72.4-186.8 168.6-206-17.6-4.8-36.2-7.4-55.4-7.4-13.6 0-26.6 1.4-39.6 3.8 26.8-83.4 104.4-144.2 196.2-146-72-56.4-162.4-90-261-90-17 0-33.6 1-50.2 3 93.2-59.8 203.6-94.4 322.2-94.4 386.4 0 597.8 320.2 597.8 597.8 0 9.2-0.2 18.2-0.6 27.2 41 29.4 76.6 66.4 104.8 108.6z" />
<glyph unicode="&#xea9b;" glyph-name="rss" d="M136.294 209.070c-75.196 0-136.292-61.334-136.292-136.076 0-75.154 61.1-135.802 136.292-135.802 75.466 0 136.494 60.648 136.494 135.802-0.002 74.742-61.024 136.076-136.494 136.076zM0.156 612.070v-196.258c127.784 0 247.958-49.972 338.458-140.512 90.384-90.318 140.282-211.036 140.282-339.3h197.122c-0.002 372.82-303.282 676.070-675.862 676.070zM0.388 960v-196.356c455.782 0 826.756-371.334 826.756-827.644h196.856c0 564.47-459.254 1024-1023.612 1024z" />
<glyph unicode="&#xeaa0;" glyph-name="vimeo" d="M1023.6 686c-4.6-99.6-74.2-236.2-208.8-409.4-139.2-180.8-257-271.4-353.4-271.4-59.6 0-110.2 55-151.4 165.2-27.6 101-55 202-82.6 303-30.6 110.2-63.4 165.2-98.6 165.2-7.6 0-34.4-16.2-80.4-48.2l-48.2 62c50.6 44.4 100.4 88.8 149.4 133.2 67.4 58.2 118 88.8 151.8 92 79.6 7.6 128.8-46.8 147.2-163.4 19.8-125.8 33.6-204 41.4-234.6 23-104.4 48.2-156.6 75.8-156.6 21.4 0 53.6 33.8 96.6 101.6 42.8 67.6 65.8 119.2 69 154.6 6.2 58.4-16.8 87.8-69 87.8-24.6 0-49.8-5.6-75.8-16.8 50.4 164.8 146.4 244.8 288.4 240.2 105-2.8 154.6-71 148.6-204.4z" />
<glyph unicode="&#xeaa4;" glyph-name="flickr2" d="M800 544c-70.58 0-128-57.42-128-128s57.42-128 128-128c70.58 0 128 57.42 128 128s-57.42 128-128 128zM800 640v0c123.71 0 224-100.288 224-224 0-123.71-100.29-224-224-224s-224 100.29-224 224c0 123.712 100.29 224 224 224zM0 416c0 123.712 100.288 224 224 224s224-100.288 224-224c0-123.712-100.288-224-224-224s-224 100.288-224 224z" />
<glyph unicode="&#xeaa7;" glyph-name="dribbble" d="M512-64c-282.4 0-512 229.6-512 512s229.6 512 512 512c282.4 0 512-229.6 512-512s-229.6-512-512-512v0zM943.8 378c-15 4.8-135.4 40.6-272.4 18.6 57.2-157.2 80.4-285.2 85-311.8 98 66.4 168 171.4 187.4 293.2v0zM682.8 44.8c-6.6 38.4-31.8 172-93.2 331.6-1-0.4-2-0.6-2.8-1-246.8-86-335.4-257-343.2-273 74.2-57.8 167.4-92.4 268.4-92.4 60.6 0 118.4 12.4 170.8 34.8v0zM187 155c10 17 130 215.6 355.4 288.6 5.6 1.8 11.4 3.6 17.2 5.2-11 24.8-23 49.8-35.4 74.2-218.2-65.4-430.2-62.6-449.4-62.4-0.2-4.4-0.2-8.8-0.2-13.4 0-112.2 42.6-214.8 112.4-292.2v0zM84 537c19.6-0.2 199.8-1 404.4 53.2-72.4 128.8-150.6 237.2-162.2 253-122.4-57.8-214-170.6-242.2-306.2v0zM409.6 872.6c12-16.2 91.6-124.4 163.2-256 155.6 58.2 221.4 146.8 229.2 158-77.2 68.6-178.8 110.2-290 110.2-35.2-0.2-69.6-4.4-102.4-12.2v0zM850.6 723.8c-9.2-12.4-82.6-106.4-244.2-172.4 10.2-20.8 20-42 29-63.4 3.2-7.6 6.4-15 9.4-22.6 145.6 18.2 290.2-11 304.6-14-1 103.2-38 198-98.8 272.4v0z" />
<glyph unicode="&#xeaa8;" glyph-name="behance" d="M297 754.8c30.2 0 57.4-2.6 82.2-8 24.8-5.2 45.8-14 63.6-26 17.6-12 31.2-28 41.2-48 9.6-19.8 14.4-44.6 14.4-74 0-31.8-7.2-58.2-21.6-79.4-14.6-21.2-35.8-38.4-64.2-52 38.8-11.2 67.4-30.8 86.6-58.6 19.2-28 28.4-61.6 28.4-101.2 0-32-6.2-59.4-18.4-82.6-12.4-23.4-29.2-42.4-49.8-57-20.8-14.8-44.8-25.6-71.6-32.6-26.6-7-54-10.6-82.4-10.6h-305.4v630h297zM279 500.4c24.6 0 45 5.8 61 17.6 16 11.6 23.6 30.8 23.6 57.2 0 14.6-2.6 26.8-7.8 36.2-5.4 9.4-12.4 16.8-21.4 22-8.8 5.4-18.8 9-30.6 11-11.4 2.2-23.4 3.2-35.6 3.2h-129.6v-147.2h140.4zM286.6 232.2c13.6 0 26.6 1.2 38.8 4 12.4 2.8 23.4 7 32.6 13.4 9.2 6.2 17 14.4 22.6 25.2 5.6 10.6 8.2 24.2 8.2 40.8 0 32.4-9.2 55.6-27.4 69.6-18.2 13.8-42.4 20.6-72.4 20.6h-150.4v-173.4h148zM725.2 234.4c18.8-18.4 45.8-27.6 81-27.6 25.2 0 47.2 6.4 65.4 19.2s29.2 26.4 33.4 40.4h110.4c-17.8-55-44.6-94-81.4-117.6-36.2-23.6-80.6-35.6-132-35.6-36 0-68.2 5.8-97.2 17.2-29 11.6-53.2 27.8-73.6 49-19.8 21.2-35.4 46.4-46.4 76-10.8 29.4-16.4 62-16.4 97.2 0 34.2 5.6 66 16.8 95.4 11.4 29.6 27 55 47.8 76.4s45.2 38.4 74 50.8c28.6 12.4 60.2 18.6 95.2 18.6 38.6 0 72.4-7.4 101.4-22.6 28.8-15 52.6-35.2 71.2-60.4s31.8-54.2 40-86.6c8.2-32.4 11-66.2 8.8-101.6h-329.4c0-35.8 12-70 31-88.2zM869 474c-14.8 16.4-40.2 25.4-70.8 25.4-20 0-36.6-3.4-49.8-10.2-13-6.8-23.6-15.2-31.8-25.2-8-10-13.6-20.8-16.8-32.2-3.2-11-5.2-21.2-5.8-30h204c-3 32-14 55.6-29 72.2zM668.4 704h255.4v-62.2h-255.4v62.2z" />
<glyph unicode="&#xeab7;" glyph-name="blogger" d="M957.796 576h-57.406c-35.166 0-65.988 29.742-68.39 64v0c0.004 182.668-147.258 320-331.19 320h-167.824c-183.812 0-332.856-148-332.986-330.666v-362.798c0-182.654 149.174-330.536 332.984-330.536h358.42c183.948 0 332.596 147.882 332.596 330.536v234.382c0 36.502-29.44 75.082-66.204 75.082zM320 704h192c35.2 0 64-28.8 64-64s-28.8-64-64-64h-192c-35.2 0-64 28.8-64 64s28.8 64 64 64zM704 192h-384c-35.2 0-64 28.8-64 64s28.8 64 64 64h384c35.2 0 64-28.8 64-64s-28.8-64-64-64z" />
<glyph unicode="&#xeab9;" glyph-name="tumblr" d="M576.032 512l-0.002-234.184c0-59.418-0.77-93.656 5.53-110.5 6.25-16.754 21.918-34.146 38.99-44.202 22.684-13.588 48.542-20.376 77.708-20.376 51.854 0 82.478 6.848 133.742 40.54v-153.944c-43.7-20.552-81.866-32.594-117.324-40.922-35.5-8.242-73.86-12.406-115.064-12.406-46.828 0-74.456 5.886-110.41 17.656-35.958 11.868-66.66 28.806-92.020 50.54-25.45 21.922-43.022 45.208-52.848 69.832-9.826 24.636-14.716 60.414-14.716 107.244v359.1h-137.426v145.006c40.208 13.042 85.164 31.788 113.78 56.152 28.754 24.45 51.766 53.706 69.106 87.944 17.392 34.146 29.348 77.712 35.872 130.516h165.084l-0.002-255.996h255.968v-192h-255.968z" />
<glyph unicode="&#xeaca;" glyph-name="linkedin2" d="M384 576h177.106v-90.782h2.532c24.64 44.194 84.958 90.782 174.842 90.782 186.946 0 221.52-116.376 221.52-267.734v-308.266h-184.61v273.278c0 65.184-1.334 149.026-96.028 149.026-96.148 0-110.82-70.986-110.82-144.292v-278.012h-184.542v576zM64 576h192v-576h-192v576zM256 736c0-53.019-42.981-96-96-96s-96 42.981-96 96c0 53.019 42.981 96 96 96s96-42.981 96-96z" />
<glyph unicode="&#xeacb;" glyph-name="lastfm" d="M451.6 193.8l-37.6 102c0 0-61-68-152.4-68-81 0-138.4 70.4-138.4 183 0 144.2 72.8 195.8 144.2 195.8 103.2 0 136-66.8 164.2-152.4l37.6-117.2c37.6-113.8 108-205.2 310.8-205.2 145.4 0 244 44.6 244 161.8 0 95-54 144.2-154.8 167.8l-75 16.4c-51.6 11.8-66.8 32.8-66.8 68 0 39.8 31.6 63.4 83.2 63.4 56.4 0 86.8-21.2 91.4-71.6l117.2 14c-9.4 105.6-82.2 149-201.8 149-105.6 0-208.8-39.8-208.8-167.8 0-79.8 38.8-130.2 136-153.6l79.8-18.8c59.8-14 79.8-38.8 79.8-72.8 0-43.4-42.2-61-122-61-118.4 0-167.8 62.2-195.8 147.8l-38.8 117.2c-49 152.6-127.6 208.8-283.6 208.8-172.4 0-264-109-264-294.4 0-178.2 91.4-274.4 255.8-274.4 132.4 0 195.8 62.2 195.8 62.2v0z" />
<glyph unicode="&#xeace;" glyph-name="stumbleupon" d="M512 640c-35.2 0-64-28.8-64-64v-256c0-105.8-86.2-192-192-192s-192 86.2-192 192v128h128v-128c0-35.2 28.8-64 64-64s64 28.8 64 64v256c0 105.8 86.2 192 192 192s192-86.2 192-178v-62l-82-24-46 24v62c0 21.2-28.8 50-64 50zM960 320c0-105.8-86.2-192-192-192s-192 86.2-192 206v124l46-24 82 24v-124c0-49.2 28.8-78 64-78s64 28.8 64 64v128h128v-128z" />
<glyph unicode="&#xead2;" glyph-name="pinterest2" d="M512 960c-282.4 0-512-229.6-512-512s229.6-512 512-512 512 229.6 512 512-229.6 512-512 512zM512 4.4c-45.8 0-89.8 7-131.4 19.8 18 29.4 45.2 77.8 55.2 116.2 5.4 20.8 27.6 105.4 27.6 105.4 14.4-27.6 56.8-51 101.6-51 133.8 0 230.2 123 230.2 276 0 146.6-119.6 256.2-273.4 256.2-191.4 0-293-128.6-293-268.4 0-65 34.6-146 90-171.8 8.4-4 12.8-2.2 14.8 6 1.4 6.2 9 36.2 12.4 50.4 1 4.4 0.6 8.4-3 12.8-18.4 22.2-33 63.2-33 101.2 0 97.8 74 192.6 200.2 192.6 109 0 185.2-74.2 185.2-180.4 0-120-60.6-203.2-139.4-203.2-43.6 0-76.2 36-65.6 80.2 12.6 52.8 36.8 109.6 36.8 147.6 0 34-18.2 62.4-56.2 62.4-44.6 0-80.2-46-80.2-107.8 0-39.2 13.2-65.8 13.2-65.8s-44-185.8-52-220.4c-9-38.4-5.4-92.2-1.6-127.2-165 64.4-282 224.8-282 412.8 0 245 198.6 443.6 443.6 443.6s443.6-198.6 443.6-443.6c0-245-198.6-443.6-443.6-443.6z" />
</font>
</defs>
</svg>
